<svg width="16" height="16" viewBox="0 0 16 16" fill="none" xmlns="http://www.w3.org/2000/svg">
<path fill-rule="evenodd" clip-rule="evenodd" d="M12.812 2L14 2.0001L14.0001 4L12.8122 3.9999H11.2183H10V2H11.2181H12.812ZM14.0001 4L16 3.9999L15.9999 5.18777V6.78168V8L14 8.0001V9.96955L12 9.96945V8L14 8.0001L14.0001 4ZM6 4H8.03045L10 3.9999V6H8.03045H6V4ZM1.99988 8.0001L0 8V6.78178V5.18792L0.000116348 4H2L1.99988 5.18787V6.78178V8.0001H4L4.00002 9.96945L1.99988 9.96955V8.0001ZM2 4L1.99988 2.0001L3.24859 2H4.84247H6V4L4.84268 3.9999H3.24868L2 4ZM6 9.96955L4.00002 9.96945L4 12H6V9.96955ZM10 9.96945H12V12H10V9.96945Z" fill="black"/>
<path d="M8 12H6V14H8.03045H10V12H8Z" fill="black"/>
<path d="M12.0001 9.96955V8.0001L14.0001 8.00019L14.0002 4.0001L12.8123 4H11.2184H10.0001V6.0001H8.03057H6.00012V4.0001L4.8428 4H3.24879L2.00012 4.0001L2 5.18796V6.78187V8.00019H4.00012L4.00014 9.96955L6.00012 9.96964V12.0001H8.00012H10.0001V9.96955H12.0001Z" fill="#FB0128"/>
<rect x="11" y="5" width="2" height="2" fill="white"/>
</svg>
